PathFileType	4	(X/Y/Z)	TVC_39_BWA_06_walk_RCNL2025.trc
DataRate	CameraRate	NumFrames	NumMarkers	Units	OrigDataRate	OrigDataStartFrame	OrigNumFrames
100	100	8	27	mm	100	280	1118
Frame#	Time	R_Shoulder			L_Shoulder			C7			J_Notch			R_Elbow			L_Elbow			R_Wrist			L_Wrist			R_Asis			L_Asis			R_Psis			L_Psis			Sacral			Thoracic			Sternum			R_Thigh_Lateral			R_Knee_Lateral			R_Shank_Lateral			R_Ankle_Lateral			R_Heel			R_Toe			L_Thigh_Lateral			L_Knee_Lateral			L_Shank_Lateral			L_Ankle_Lateral			L_Heel			L_Toe		
		X1	Y1	Z1	X2	Y2	Z2	X3	Y3	Z3	X4	Y4	Z4	X5	Y5	Z5	X6	Y6	Z6	X7	Y7	Z7	X8	Y8	Z8	X9	Y9	Z9	X10	Y10	Z10	X11	Y11	Z11	X12	Y12	Z12	X13	Y13	Z13	X14	Y14	Z14	X15	Y15	Z15	X16	Y16	Z16	X17	Y17	Z17	X18	Y18	Z18	X19	Y19	Z19	X20	Y20	Z20	X21	Y21	Z21	X22	Y22	Z22	X23	Y23	Z23	X24	Y24	Z24	X25	Y25	Z25	X26	Y26	Z26	X27	Y27	Z27
280	2.79000000	-899.874756	1471.678223	413.263397	-858.283447	1485.688965	52.698151	-914.016724	1540.231079	227.504318	-766.196655	1413.742065	237.732468	-881.769470	1151.464233	528.867188	-909.260620	1175.079590	-72.031258	-765.611267	929.260040	476.929703	-826.433044	925.868805	-57.923515	-833.861389	935.115356	374.080414	-800.095032	932.321899	78.269394	-1021.807495	963.845581	261.987000	-1010.465576	957.362488	154.999146	-1016.136536	960.604034	208.493073	-1009.032104	1213.114990	207.437286	-726.055115	1252.090698	249.239685	-878.555847	737.624512	450.710297	-881.398438	470.370667	396.495453	-978.303528	308.805511	464.394226	-1044.656128	90.465263	381.352264	-1089.257690	79.528076	328.295105	-909.398010	43.914818	395.931732	-840.516113	677.869202	2.900346	-790.304810	463.667419	91.681732	-836.971191	328.658508	34.895218	-898.045898	72.689209	124.995819	-942.765381	58.506935	182.417313	-758.157410	41.701096	117.460770
281	2.80000000	-897.962769	1472.157227	411.672180	-856.383911	1485.908203	51.024426	-911.945435	1540.701904	225.917648	-764.349121	1414.020142	236.154633	-879.380188	1151.956665	527.167053	-908.803650	1175.528809	-73.529716	-763.255402	929.582367	475.915665	-828.073029	925.585510	-59.731554	-832.611877	935.735962	372.924957	-798.415222	932.530518	77.089249	-1020.361084	964.345581	260.525818	-1008.897278	957.859253	153.582916	-1014.629181	961.102417	207.054367	-1007.341797	1213.695312	205.743271	-724.361023	1252.369995	247.806534	-877.180481	738.500305	449.926483	-878.827942	471.112732	396.380615	-976.579407	310.146088	464.248444	-1043.940186	92.022552	381.378815	-1088.592773	81.478279	328.307617	-909.142700	43.942879	396.024841	-840.039551	678.121216	1.914591	-790.862000	463.725220	90.932465	-837.516602	328.598572	34.307732	-898.131042	72.594086	124.870171	-942.839417	58.498264	182.291519	-758.212280	41.641556	117.377747
282	2.81000000	-896.121826	1472.709595	410.062988	-854.533081	1486.194092	49.344315	-909.930908	1541.217529	224.313446	-762.556152	1414.355713	234.568634	-877.115906	1152.567383	525.542114	-908.404053	1176.059204	-75.035141	-760.947662	930.046814	475.029388	-829.744904	925.417053	-61.467518	-831.335815	936.430603	371.782043	-796.763306	932.789368	75.929298	-1018.913025	964.882874	259.115631	-1007.353149	958.390503	152.212601	-1013.133087	961.636688	205.664116	-1005.680786	1214.303467	204.054703	-722.702454	1252.713501	246.368759	-875.599304	739.451660	449.155151	-876.174255	471.917175	396.315979	-974.731262	311.544098	464.171265	-1043.169556	93.667740	381.485229	-1087.887695	83.540833	328.422638	-908.848450	43.976540	396.123444	-839.587830	678.435852	0.952280	-791.561829	463.818420	90.169350	-838.192505	328.568695	33.702431	-898.228088	72.497345	124.739349	-942.929810	58.479794	182.157593	-758.268494	41.571228	117.289757
283	2.82000000	-894.348816	1473.329834	408.438324	-852.731018	1486.541016	47.660114	-907.973206	1541.773560	222.693970	-760.816833	1414.744873	232.976044	-874.977173	1153.294067	524.002991	-908.051880	1176.663330	-76.546890	-758.692810	930.653137	474.262329	-831.440308	925.354950	-63.136156	-830.031128	937.196472	370.651764	-795.139526	933.092163	74.788704	-1017.462646	965.451477	257.759003	-1005.832642	958.948059	150.891205	-1011.647644	962.199768	204.325104	-1004.049011	1214.934937	202.373947	-721.078430	1253.116455	244.926239	-873.797607	740.472595	448.395172	-873.432983	472.778107	396.299408	-972.753418	312.990295	464.158722	-1042.341553	95.395744	381.669006	-1087.136475	85.708992	328.634094	-908.515137	44.014706	396.222656	-839.155884	678.804382	0.021089	-792.387024	463.942627	89.401253	-838.978333	328.564423	33.089432	-898.337036	72.401367	124.604446	-943.033142	58.451199	182.020523	-758.322327	41.493553	117.200089
284	2.83000000	-892.640564	1474.010986	406.800995	-850.978210	1486.942017	45.974121	-906.072205	1542.364990	221.061798	-759.130188	1415.182373	231.378525	-872.962158	1154.131592	522.558594	-907.737671	1177.332764	-78.063950	-756.494873	931.397552	473.605881	-833.151245	925.389343	-64.742931	-828.696472	938.029968	369.534607	-793.544128	933.431763	73.666969	-1016.009766	966.044739	256.458313	-1004.335388	959.522888	149.621674	-1010.172577	962.783813	203.039993	-1002.446411	1215.584839	200.703445	-719.488220	1253.573364	243.478973	-871.768738	741.556335	447.645477	-870.602051	473.689636	396.329285	-970.645813	314.475830	464.205963	-1041.454102	97.200371	381.925232	-1086.333008	87.974442	328.932434	-908.144287	44.055790	396.318542	-838.739624	679.215942	-0.870800	-793.317322	464.092499	88.637077	-839.852051	328.580872	32.478619	-898.457825	72.308586	124.466362	-943.144836	58.412647	181.885483	-758.371277	41.412529	117.110977
285	2.84000000	-890.993713	1474.745361	405.154022	-849.275146	1487.389893	44.288605	-904.227844	1542.985840	219.419785	-757.495178	1415.662231	229.777832	-871.066650	1155.072998	521.215637	-907.452881	1178.057739	-79.585007	-754.356964	932.273254	473.051682	-834.869995	925.509399	-66.293880	-827.331543	938.926819	368.431488	-791.977051	933.800354	72.563866	-1014.554504	966.655518	255.215698	-1002.861084	960.105469	148.406693	-1008.707794	963.380493	201.811195	-1000.873108	1216.247192	199.045761	-717.931152	1254.078003	242.027130	-869.514893	742.695557	446.905457	-867.681763	474.646057	396.404602	-968.413696	315.992401	464.307617	-1040.505493	99.074471	382.247162	-1085.470947	90.327522	329.305573	-907.739441	44.098064	396.408142	-838.333862	679.657776	-1.715102	-794.330505	464.261963	87.885422	-840.791382	328.613037	31.879034	-898.589844	72.221092	124.326263	-943.260193	58.364864	181.757339	-758.414307	41.332397	117.023293
286	2.85000000	-889.404968	1475.524048	403.500763	-847.622803	1487.876709	42.605831	-902.439697	1543.629761	217.771011	-755.910828	1416.177979	228.175781	-869.284363	1156.109253	519.978577	-907.190491	1178.827515	-81.108467	-752.281555	933.270416	472.591599	-836.589172	925.703735	-67.795412	-825.936768	939.881897	367.343506	-790.438354	934.189819	71.479446	-1013.097351	967.276367	254.032822	-1001.409485	960.686218	147.248672	-1007.253418	963.981293	200.640747	-999.329041	1216.916382	197.403534	-716.406494	1254.623413	240.571106	-867.046875	743.883179	446.175507	-864.675049	475.641632	396.525177	-966.067566	317.532562	464.458130	-1039.494873	101.010086	382.626343	-1084.544434	92.757545	329.739594	-907.305420	44.139988	396.489655	-837.932495	680.115845	-2.504647	-795.402893	464.444427	87.154167	-841.774475	328.656036	31.298336	-898.731750	72.140511	124.185776	-943.374390	58.309109	181.640244	-758.452026	41.257072	116.936737
287	2.86000000	-887.871155	1476.337769	401.844696	-846.022278	1488.393799	40.928051	-900.707397	1544.290039	216.118729	-754.376099	1416.722900	226.574249	-867.607056	1157.229980	518.849548	-906.945068	1179.631226	-82.632477	-750.270355	934.376648	472.218018	-838.301941	925.960754	-69.254107	-824.513672	940.889709	366.272034	-788.927917	934.592102	70.414040	-1011.639160	967.899902	252.910858	-999.980347	961.255676	146.149582	-1005.809753	964.577789	199.530220	-997.814270	1217.585938	195.779556	-714.913574	1255.202515	239.111618	-864.383789	745.112061	445.457611	-861.587158	476.670929	396.691498	-963.622070	319.089569	464.652069	-1038.421997	102.998817	383.053070	-1083.548096	95.253189	330.219727	-906.848022	44.180576	396.562012	-837.529236	680.576050	-3.234860	-796.510010	464.632996	86.450027	-842.780640	328.705322	30.742361	-898.881714	72.067833	124.046928	-943.483032	58.247082	181.537338	-758.485901	41.189548	116.850273
